<svg version="1.2" xmlns="http://www.w3.org/2000/svg" viewBox="0 0 2050 2050" width="2050" height="2050">
	<title>vecteezy_yamaha-logo-vector-yamaha-icon-free-vector_20336399</title>
	<style>
		.s0 { opacity: 0;fill: #ffffff } 
		.s1 { fill: #eeeeee } 
	</style>
	<g id="_Artboards_">
	</g>
	<g id="Bg">
		<path id="&lt;Path&gt;" class="s0" d="m0 2050v-2050h2050v2050z"/>
	</g>
	<g id="Layer 1">
		<path id="&lt;Compound Path&gt;" fill-rule="evenodd" class="s1" d="m1025.4 34.9c547 0 990.6 443.6 990.6 990.6 0 546.9-443.6 990.5-990.6 990.5-546.9 0-990.5-443.6-990.5-990.5 0-547 443.6-990.6 990.5-990.6zm-3.2 16h-0.2c-16.8-0.5-20.6 11.9-25.8 25.2l-41.6 126.7-2.8 0.2c-425.5 37.6-752.1 395.4-752.1 822.5 0 120.2 26 238.7 76.7 347.7l1.2 2.5-89.5 99.9c-8.9 11.3-17.8 20.8-8.9 35.1v0.1l0.2 0.1c7.8 14.8 20.5 12 34.8 9.8l130.9-27.5 1.5 2.3c154.8 223 407.3 355.6 678.8 355.6 271.1 0 523.3-132.1 678.1-354.4l1.4-2.2 125.3 26.2c14.1 2.2 26.8 5 34.6-9.8l0.2-0.1v-0.1c8.9-14.3 0-23.8-8.9-35.1l-85.1-95 1.1-2.5c52.2-110.4 79.1-230.6 79.1-352.6 0-429.7-330.5-788.8-759-823.1l-2.8-0.2-41.2-126.1c-5.2-13.3-9.2-25.7-26-25.2zm155 1241.9v433.3h-82.3v-480.9l-72.8-42-72.7 42v480.9h-82.4v-433.3l-81.7 47.1c-44.3 25.6-99.2 28.8-146 7.7-38.9-18.3-84.6 1.6-111.1 32-10.4 11.9-18.5 25.9-22.9 41.1-0.9 2.7-1.4 5.4-2.1 8.1l-0.4 2.6-291.4 68c-3.1 0.8-7.3 1.6-9.3-1.8-1.9-3.3 0.9-6.6 3-8.9 67-72.8 136-143.7 203.1-216.5l1.8-2 2.4 0.8c46.8 15.9 109.5-5.6 131.3-51.4 3.7-8 6.2-16.7 6.9-25.6 5.1-51.4 35.2-96.9 79.8-122.7l81.5-47.1-375.3-216.7 41.3-71.3 416.3 240.4 72.8-42v-84l-416.4-240.4 41.1-71.3 375.3 216.6v-94.2c0-51.5 24.5-100.2 66.5-130.4 35.4-24.6 40.9-73.9 27.8-112.2-5.1-14.9-13.3-29-24.2-40.4-1.9-2-3.9-3.9-6-5.8l-2-1.7 86.9-286.4c0.7-3 2.2-7.1 6.1-7.1 3.8 0 5.3 4.1 6.3 7.1 29.4 94.4 56.4 189.6 86 284.1l0.7 2.5-2 1.8c-37 32.6-49.7 97.5-21 139.3 5.1 7.3 11.3 13.7 18.8 18.9 41.8 30.1 66.3 78.8 66.3 130.3v94.2l375.3-216.6 41.1 71.3-416.4 240.4v84l72.8 42 416.5-240.4 41.1 71.3-375.3 216.7 81.5 47.1c44.8 25.8 74.7 71.3 79.8 122.7 3.6 43 43.6 72.4 83.2 80.2 15.6 3 31.8 3.1 47.1-0.7 2.8-0.7 5.4-1.5 8-2.3l2.6-0.9 204.5 218.4c2.3 2.3 5.1 5.6 3.3 9-2.1 3.3-6.3 2.5-9.4 1.7-96.6-21.6-192.5-45.9-289-67.5l-2.7-0.6-0.4-2.7c-3.6-17.9-12.4-34.6-24.4-48.4-20.7-24.3-53.2-42-85.8-39.4-8.9 0.7-17.5 3-25.7 6.8-46.8 21.1-101.7 17.9-146-7.7zm-310.2-179.1l-72.8-42-121.9 70.3c-34.7 20.1-48.6 65.1-28.3 100.4 20.3 35.2 66.4 45.7 101.2 25.7l121.8-70.4zm310.2 84l121.7 70.4c34.8 20 80.9 9.6 101.2-25.7 20.4-35.2 6.4-80.3-28.3-100.4l-121.9-70.3-72.7 42zm-82.4-215.5l-72.7-42.1-72.8 42.1v84l72.8 42 72.7-42zm-145.5-179.1l72.8 42 72.7-42v-140.7c0-40.2-31.9-74.7-72.7-74.7-40.8 0-72.8 34.5-72.8 74.7z"/>
	</g>
</svg>