<?xml version="1.0" encoding="UTF-8"?>
<!DOCTYPE svg PUBLIC "-//W3C//DTD SVG 1.1//EN" "http://www.w3.org/Graphics/SVG/1.1/DTD/svg11.dtd">
<!-- Creator: CorelDRAW 2019 (64-Bit) -->
<svg xmlns="http://www.w3.org/2000/svg" xml:space="preserve" width="191.552mm" height="42.3647mm" version="1.1" style="shape-rendering:geometricPrecision; text-rendering:geometricPrecision; image-rendering:optimizeQuality; fill-rule:evenodd; clip-rule:evenodd"
viewBox="0 0 191.6847 42.394"
 xmlns:xlink="http://www.w3.org/1999/xlink"
 xmlns:xodm="http://www.corel.com/coreldraw/odm/2003">
 <defs>
  <style type="text/css">
   <![CDATA[
    .fil0 {fill:white}
   ]]>
  </style>
 </defs>
 <g id="Layer_x0020_1">
  <metadata id="CorelCorpID_0Corel-Layer"/>
  <g id="_843724336">
   <polygon class="fil0" points="93.6552,11.5302 87.9528,21.1676 95.4007,21.1676 101.102,11.5302 112.0901,11.5302 113.6594,8.8776 83.2383,8.8776 81.6687,11.5302 "/>
   <polygon class="fil0" points="119.0499,14.3706 111.5469,14.3706 109.6895,17.121 121.5317,17.121 123.3903,14.3706 "/>
   <polygon class="fil0" points="70.093,8.7764 58.9954,17.3884 57.0873,8.7764 48.2117,8.7764 40.9394,21.0665 47.471,21.0665 53.3015,11.5121 55.5211,21.0665 59.9324,21.0665 72.4854,11.6639 66.5724,21.0665 73.3097,21.0665 80.5823,8.7764 "/>
   <path class="fil0" d="M145.9752 18.531l-13.3451 0 4.4126 -7.4575 13.3457 0 -4.4132 7.4575zm-2.1734 -9.7542l0 0 -11.7689 0 -7.2721 12.2897 26.6365 0 7.2725 -12.2897 -14.868 0z"/>
   <path class="fil0" d="M181.5637 13.5332l-14.8638 0 1.7351 -2.9322 14.8639 0 -1.7352 2.9322zm-7.0405 -4.7569l0 0 -11.769 0 -4.0772 6.89 21.6247 0 -1.7952 3.0333 -21.624 0 -1.4003 2.3663 28.9299 0 7.2726 -12.2896 -17.1615 0z"/>
   <path class="fil0" d="M8.0998 4.6793c-0.0163,-0.128 -0.0903,-0.2409 -0.2011,-0.3073 -0.1531,-0.0904 -6.0469,-3.5901 -7.2661,-4.3133 -0.0641,-0.0379 -0.1352,-0.0574 -0.2066,-0.0587l-0.0035 0 -0.0035 0 -0.0048 0c-0.1009,0.0012 -0.2008,0.0388 -0.2784,0.1098 -0.1363,0.1256 -0.1741,0.3248 -0.0943,0.4912 0.5305,1.0961 1.0824,2.2405 1.0835,2.2433l0.0054 0.0118c0.2077,0.7913 3.3259,12.6599 3.375,12.8487 0.0134,0.0498 0.0351,0.097 0.065,0.1389 0.0967,0.1337 3.5064,4.8933 5.0768,7.0849 0.0799,0.1131 0.2079,0.1748 0.3401,0.1748 0.0513,0 0.1029,-0.0095 0.1526,-0.0284 0.1786,-0.0703 0.2871,-0.2531 0.2626,-0.4429 -0.4526,-3.5276 -2.2448,-17.5011 -2.3028,-17.9528z"/>
   <path class="fil0" d="M34.9172 0.1098c-0.0799,-0.0721 -0.1814,-0.1098 -0.284,-0.1098 -0.0737,0 -0.1469,0.0195 -0.2135,0.0587l-7.2652 4.3133c-0.1109,0.0664 -0.1851,0.1793 -0.202,0.3066 -0.025,0.1971 -2.0467,15.9551 -2.3029,17.9535 -0.0244,0.1898 0.0839,0.3726 0.2626,0.4429 0.0498,0.0189 0.1018,0.0284 0.1533,0.0284 0.1314,0 0.2599,-0.0617 0.34,-0.1748l2.1382 -2.9837c1.4144,-1.9743 2.8765,-4.0175 2.9373,-4.1012 0.0307,-0.0419 0.053,-0.0899 0.0661,-0.1407 0.0489,-0.1872 3.1712,-12.0704 3.3753,-12.8485 0.1001,-0.2077 0.6126,-1.2692 1.0882,-2.2536 0.0809,-0.1664 0.0422,-0.3657 -0.0934,-0.4912z"/>
   <path class="fil0" d="M24.1432 6.0771c-0.0678,0 -0.1366,0.0162 -0.1992,0.0506l-1.3457 0.7284c-1.5698,0.8511 -3.1858,1.7265 -3.4806,1.8863 -0.1314,0.0714 -0.2155,0.2079 -0.2195,0.3585 -0.0146,0.6105 -0.5079,20.4513 -0.5333,21.4708l-0.1838 0.8265c-0.4998,0.7434 -0.9828,0.4374 -1.2977,0.0552l-0.1959 -0.8817c-0.0255,-1.0376 -0.518,-20.865 -0.5332,-21.4708 -0.0037,-0.1509 -0.0879,-0.2871 -0.2198,-0.3585 -0.2266,-0.1223 -1.2314,-0.6673 -2.3966,-1.2982l-2.4297 -1.3165c-0.0622,-0.0344 -0.1303,-0.0506 -0.199,-0.0506 -0.1114,0 -0.221,0.0443 -0.3017,0.1272 -0.1306,0.1357 -0.1548,0.3417 -0.0591,0.504 0.2915,0.4948 0.6365,1.0777 0.7601,1.2878l1.9892 20.3573c-0.0434,0.3005 -0.2673,1.8554 -0.2989,2.0705 -0.0096,0.068 -0.0024,0.1368 0.0205,0.2008 0.081,0.2284 3.2928,9.2036 4.1121,11.4914 0.0593,0.1659 0.2174,0.2778 0.3942,0.2778 0.1767,0 0.3346,-0.1119 0.3947,-0.2778 0.7955,-2.2222 4.0301,-11.2589 4.1121,-11.4914 0.0237,-0.064 0.0301,-0.1328 0.0203,-0.2008 -0.0307,-0.2151 -0.2547,-1.77 -0.2978,-2.0705l1.9894 -20.358c0.123,-0.2093 0.4674,-0.7914 0.76,-1.2864 0.0953,-0.1623 0.071,-0.3681 -0.0598,-0.5047 -0.0801,-0.0829 -0.1904,-0.1272 -0.3013,-0.1272z"/>
  </g>
 </g>
</svg>
