<?xml version="1.0" encoding="utf-8"?>
<!-- Generator: $$$/GeneralStr/196=Adobe Illustrator 27.6.0, SVG Export Plug-In . SVG Version: 6.00 Build 0)  -->
<svg version="1.1" id="Capa_1" xmlns="http://www.w3.org/2000/svg" xmlns:xlink="http://www.w3.org/1999/xlink" x="0px" y="0px"
	 viewBox="0 0 314.5 102.7" style="enable-background:new 0 0 314.5 102.7;" xml:space="preserve">
<style type="text/css">
	.st0{fill:#848484;}
</style>
<g id="ABS_tiene">
	<g>
		<g>
			<g>
				<path class="st0" d="M47.4,53.3c-0.1-0.4-0.5-0.7-1-0.7h-3.3c-0.4,0-0.8,0.3-1,0.7l-7.3,21.5c-0.1,0.3-0.1,0.7,0.1,0.9
					c0.2,0.3,0.5,0.4,0.8,0.4h2.9c0.4,0,0.8-0.3,1-0.7l2-6.1h6.2l2.1,6.1c0.1,0.4,0.5,0.7,1,0.7h3l0,0c0.6,0,1-0.5,1-1
					c0-0.1,0-0.3-0.1-0.4L47.4,53.3z M46.6,65.1H43l1.6-4.9c0.1-0.2,0.1-0.3,0.2-0.5c0.1,0.2,0.1,0.3,0.2,0.5L46.6,65.1z"/>
				<path class="st0" d="M68.4,63.4c1.5-1.1,2.4-2.8,2.4-4.6c0-1.9-0.8-3.5-2.2-4.6C67,53,65,52.4,62,52.4c-2,0-4,0.2-5.3,0.5
					c-0.5,0.1-0.8,0.5-0.8,1V75c0,0.5,0.4,0.9,0.9,1c0.7,0.1,2.2,0.3,4.4,0.3c3.8,0,6.4-0.7,8.1-2.3c1.4-1.3,2.2-3.1,2.2-5.1
					C71.5,66.2,70.1,64.4,68.4,63.4z M62.3,61.7h-1.5v-5c0.4,0,0.9-0.1,1.4-0.1c3.7,0,3.7,1.8,3.7,2.5
					C65.9,60.7,64.5,61.7,62.3,61.7z M62.1,72.1c-0.5,0-0.9,0-1.3,0v-6.3H62c1.4,0,4.5,0.3,4.5,3.1C66.6,71.5,64.1,72.1,62.1,72.1z"
					/>
				<path class="st0" d="M81.1,62c-3.1-1.2-3.6-2-3.6-3.2c0-1,0.8-2.2,3-2.2c2,0,3.3,0.7,3.5,0.9c0.3,0.2,0.6,0.2,0.9,0.1
					c0.3-0.1,0.5-0.3,0.6-0.6l0.8-2.3c0.2-0.5,0-1-0.5-1.2c-1.3-0.8-3.2-1.2-5.2-1.2c-4.6,0-8,2.9-8,6.9c0,3.2,2.1,5.5,6.3,7.1
					c2.8,1.1,3.4,2,3.4,3.3c0,1.7-1.3,2.6-3.5,2.6c-1.5,0-3.2-0.5-4.4-1.2c-0.3-0.2-0.6-0.2-0.9-0.1s-0.5,0.4-0.6,0.7l-0.7,2.3
					c-0.1,0.4,0,0.9,0.4,1.2c1.4,0.9,3.9,1.6,6.1,1.6c5.9,0,8.5-3.6,8.5-7.2C87.2,64.9,84.1,63.1,81.1,62z"/>
			</g>
			<g>
				<path class="st0" d="M61,101.8c-20.7,0-37.5-16.8-37.5-37.5S40.3,26.8,61,26.8s37.5,16.8,37.5,37.5S81.6,101.8,61,101.8z M61,33
					c-17.3,0-31.4,14-31.4,31.3S43.7,95.7,61,95.7s31.4-14.1,31.4-31.4S78.3,33,61,33z"/>
			</g>
			<g>
				<g>
					<path class="st0" d="M84.8,99.8c-0.9-1.4,0-3.5,1.7-4.8c19.7-16.7,19.7-44.6,0-61.3c-1.7-1.3-2.5-3.4-1.7-4.8
						c0.9-1.4,3.4-1.5,5.3,0c22.9,19,22.9,51.9,0,70.9C88.1,101.3,85.7,101.2,84.8,99.8z"/>
				</g>
			</g>
			<g>
				<g>
					<path class="st0" d="M37.1,99.8c0.9-1.4,0-3.5-1.7-4.8c-19.7-16.7-19.7-44.6,0-61.3c1.7-1.3,2.5-3.4,1.7-4.8
						c-0.9-1.4-3.4-1.5-5.3,0c-22.9,19-22.9,51.9,0,70.9C33.7,101.3,36.2,101.2,37.1,99.8z"/>
				</g>
			</g>
		</g>
		<g>
			<g>
				<path class="st0" d="M124.2,60.3c-0.7,0.6-1.9,1-3.4,1s-2.7-0.4-3.4-1c-0.8-0.7-1-1.6-1-3h3.1c0,0.6,0,1,0.3,1.2
					c0.2,0.2,0.5,0.3,1,0.3s0.8-0.1,1-0.3s0.3-0.6,0.3-1.1c0-1.3-0.2-1.5-1.4-1.9l-2-0.7c-1.6-0.6-2.2-1.3-2.2-3.4
					c0-1.3,0.5-2.3,1.4-3c0.7-0.6,1.7-0.9,2.9-0.9c1.4,0,2.4,0.3,3.1,0.9c0.9,0.7,1.2,1.8,1.2,3.2H122c0-0.5,0-0.9-0.3-1.2
					c-0.2-0.2-0.4-0.3-0.9-0.3c-0.4,0-0.7,0.2-0.9,0.4c-0.2,0.2-0.3,0.5-0.3,1c0,0.9,0.2,1.1,1.1,1.4l1.9,0.7c2,0.7,2.5,1.5,2.5,3.9
					C125.2,58.7,125,59.7,124.2,60.3z"/>
				<path class="st0" d="M127.7,61.2V47.6h3.1v13.6C130.8,61.2,127.7,61.2,127.7,61.2z"/>
				<path class="st0" d="M141,60.3c-0.7,0.6-1.9,1-3.4,1s-2.7-0.4-3.4-1c-0.8-0.7-1-1.6-1-3h3.1c0,0.6,0,1,0.3,1.2
					c0.2,0.2,0.5,0.3,1,0.3s0.8-0.1,1-0.3s0.3-0.6,0.3-1.1c0-1.3-0.2-1.5-1.4-1.9l-2-0.7c-1.6-0.6-2.2-1.3-2.2-3.4
					c0-1.3,0.5-2.3,1.4-3c0.7-0.6,1.7-0.9,2.9-0.9c1.4,0,2.4,0.3,3.1,0.9c0.9,0.7,1.2,1.8,1.2,3.2h-3.1c0-0.5,0-0.9-0.3-1.2
					c-0.2-0.2-0.4-0.3-0.9-0.3c-0.4,0-0.7,0.2-0.9,0.4s-0.3,0.5-0.3,1c0,0.9,0.2,1.1,1.1,1.4l1.9,0.7c2,0.7,2.5,1.5,2.5,3.9
					C142,58.7,141.8,59.7,141,60.3z"/>
				<path class="st0" d="M149.5,50v11.2h-3.1V50h-2.6v-2.4h8.3V50H149.5z"/>
				<path class="st0" d="M154.3,61.2V47.6h7.2V50h-4.1v3.1h3.5v2.4h-3.5v3.2h4.1v2.4L154.3,61.2L154.3,61.2z"/>
				<path class="st0" d="M171.9,61.2v-7.1l-1.7,4.7h-1.6l-1.7-4.7v7.1h-3.1V47.6h2.7l2.8,6.7l2.8-6.7h2.7v13.6
					C174.8,61.2,171.9,61.2,171.9,61.2z"/>
				<path class="st0" d="M184.7,61.2l-0.5-2.1h-3.6l-0.5,2.1h-3.2l4-13.6h3.1l4,13.6C188,61.2,184.7,61.2,184.7,61.2z M182.4,51.6
					l-1.2,5.1h2.4L182.4,51.6z"/>
				<path class="st0" d="M200.8,61.2l-0.5-2.1h-3.6l-0.5,2.1H193l4-13.6h3.1l4,13.6C204.1,61.2,200.8,61.2,200.8,61.2z M198.5,51.6
					l-1.2,5.1h2.4L198.5,51.6z"/>
				<path class="st0" d="M212.3,61.2l-3.3-6.7v6.7h-3.1V47.6h2.7l3.2,6.7v-6.7h3.1v13.6C214.9,61.2,212.3,61.2,212.3,61.2z"/>
				<path class="st0" d="M222.8,50v11.2h-3.1V50h-2.6v-2.4h8.3V50H222.8z"/>
				<path class="st0" d="M227.6,61.2V47.6h3.1v13.6C230.7,61.2,227.6,61.2,227.6,61.2z"/>
				<path class="st0" d="M241.4,60.3c-0.7,0.6-1.7,0.9-3.2,0.9h-4.5V47.6h4.5c1.5,0,2.6,0.3,3.3,0.9c0.7,0.6,1,1.6,1,2.9
					c0,0.9-0.1,1.6-0.7,2.2c-0.2,0.2-0.4,0.3-0.7,0.5c0.3,0.1,0.5,0.3,0.7,0.5c0.7,0.7,0.8,1.7,0.8,2.5
					C242.4,58.5,242.2,59.6,241.4,60.3z M237.7,50h-0.9v2.9h0.9c1.2,0,1.6-0.4,1.6-1.5C239.3,50.4,238.9,50,237.7,50z M237.7,55.2
					h-1v3.5h1c1.2,0,1.6-0.5,1.6-1.8C239.3,55.7,238.9,55.2,237.7,55.2z"/>
				<path class="st0" d="M245.2,61.2V47.6h3.1v11.2h4.1v2.4H245.2z"/>
				<path class="st0" d="M261.7,60c-0.7,0.7-1.7,1.4-3.4,1.4s-2.7-0.6-3.4-1.4c-1.2-1.3-1.2-3.8-1.2-5.6s-0.1-4.3,1.2-5.6
					c0.7-0.7,1.6-1.4,3.4-1.4s2.7,0.6,3.4,1.4c1.2,1.3,1.2,3.8,1.2,5.6S262.9,58.7,261.7,60z M259.3,50.4c-0.2-0.3-0.5-0.5-1.1-0.5
					s-0.9,0.2-1,0.5c-0.4,0.6-0.4,2.3-0.4,4c0,1.6,0,3.3,0.4,4c0.2,0.3,0.5,0.5,1,0.5c0.6,0,0.9-0.2,1.1-0.5c0.4-0.6,0.4-2.3,0.4-4
					C259.7,52.7,259.7,51,259.3,50.4z"/>
				<path class="st0" d="M273.3,61.6l-1.3-1c-0.6,0.4-1.5,0.7-2.6,0.7c-1.7,0-2.7-0.6-3.4-1.4c-1.2-1.3-1.2-3.8-1.2-5.6
					s-0.1-4.3,1.2-5.6c0.7-0.7,1.6-1.4,3.4-1.4c1.7,0,2.7,0.6,3.4,1.4c1.2,1.3,1.2,3.8,1.2,5.6c0,1.5,0.1,3.4-0.6,4.8l1.3,1
					L273.3,61.6z M270.5,50.4c-0.2-0.3-0.5-0.5-1.1-0.5s-0.9,0.2-1,0.5c-0.4,0.6-0.4,2.3-0.4,4c0,1.6,0,3.3,0.4,4
					c0.2,0.3,0.5,0.5,1,0.5c0.1,0,0.2,0,0.2,0l-0.6-0.4l1.4-1.5l0.3,0.2c0.1-0.8,0.1-1.8,0.1-2.9C270.9,52.7,270.8,51,270.5,50.4z"
					/>
				<path class="st0" d="M284,60.2c-0.8,0.7-1.9,1.1-3.2,1.1s-2.4-0.4-3.2-1.1c-0.7-0.7-1.2-1.6-1.2-2.7v-10h3.1v10.1
					c0,0.9,0.6,1.2,1.3,1.2s1.3-0.3,1.3-1.2v-10h3.1v10C285.1,58.6,284.7,59.6,284,60.2z"/>
				<path class="st0" d="M287.9,61.2V47.6h7.2V50H291v3.1h3.5v2.4H291v3.2h4.1v2.4L287.9,61.2L287.9,61.2z"/>
				<path class="st0" d="M305.1,60c-0.7,0.7-1.7,1.4-3.4,1.4c-1.7,0-2.7-0.6-3.4-1.4c-1.2-1.3-1.2-3.8-1.2-5.6s-0.1-4.3,1.2-5.6
					c0.7-0.7,1.6-1.4,3.4-1.4c1.7,0,2.7,0.6,3.4,1.4c1.2,1.3,1.2,3.8,1.2,5.6S306.3,58.7,305.1,60z M302.7,50.4
					c-0.2-0.3-0.5-0.5-1.1-0.5s-0.9,0.2-1,0.5c-0.4,0.6-0.4,2.3-0.4,4c0,1.6,0,3.3,0.4,4c0.2,0.3,0.5,0.5,1,0.5
					c0.6,0,0.9-0.2,1.1-0.5c0.4-0.6,0.4-2.3,0.4-4S303.1,51,302.7,50.4z"/>
				<path class="st0" d="M124.7,79c-0.7,0.7-1.7,1.3-3.4,1.3H117V66.7h4.4c1.7,0,2.7,0.6,3.4,1.3c1.2,1.3,1.2,3.7,1.2,5.5
					C125.9,75.3,126,77.8,124.7,79z M122.4,69.8c-0.2-0.3-0.6-0.6-1.2-0.6H120v8.7h1.2c0.6,0,1-0.2,1.2-0.6c0.4-0.6,0.4-2.3,0.4-3.8
					S122.8,70.4,122.4,69.8z"/>
				<path class="st0" d="M128.4,80.3V66.7h7.2v2.4h-4.1v3.1h3.5v2.4h-3.5v3.2h4.1v2.4h-7.2V80.3z"/>
				<path class="st0" d="M145.3,69.2v3.1h3.5v2.4h-3.5v5.6h-3.1V66.7h7.2v2.4L145.3,69.2L145.3,69.2z"/>
				<path class="st0" d="M157.7,80.3l-1.9-5.3h-1v5.3h-3.1V66.7h4.4c3.4,0,4.3,1.6,4.3,4.2c0,1.5-0.3,2.8-1.8,3.6l2.3,5.9
					L157.7,80.3L157.7,80.3z M156.1,69.2h-1.3v3.4h1.3c1.2,0,1.2-0.9,1.2-1.7C157.3,70.1,157.2,69.2,156.1,69.2z"/>
				<path class="st0" d="M163.2,80.3V66.7h7.2v2.4h-4.1v3.1h3.5v2.4h-3.5v3.2h4.1v2.4h-7.2V80.3z"/>
				<path class="st0" d="M179.2,80.3l-3.3-6.7v6.7h-3.1V66.7h2.7l3.2,6.7v-6.7h3.1v13.6C181.8,80.3,179.2,80.3,179.2,80.3z"/>
				<path class="st0" d="M192.3,79.1c-0.7,0.7-1.7,1.4-3.4,1.4s-2.7-0.6-3.4-1.4c-1.2-1.3-1.2-3.8-1.2-5.6c0-1.8-0.1-4.3,1.2-5.6
					c0.7-0.7,1.6-1.4,3.4-1.4c1.7,0,2.7,0.6,3.4,1.4c1.2,1.3,1.2,3.8,1.2,5.6C193.4,75.4,193.5,77.8,192.3,79.1z M189.9,69.5
					c-0.2-0.3-0.5-0.5-1.1-0.5s-0.9,0.2-1,0.5c-0.4,0.6-0.4,2.3-0.4,4s0,3.3,0.4,4c0.2,0.3,0.5,0.5,1,0.5c0.6,0,0.9-0.2,1.1-0.5
					c0.4-0.6,0.4-2.3,0.4-4S190.3,70.2,189.9,69.5z"/>
				<path class="st0" d="M203.2,79.5c-0.7,0.6-1.9,1-3.4,1s-2.7-0.4-3.4-1c-0.8-0.7-1-1.6-1-3h3.1c0,0.6,0,1,0.3,1.2
					c0.2,0.2,0.5,0.3,1,0.3s0.8-0.1,1-0.3c0.2-0.2,0.3-0.6,0.3-1.1c0-1.3-0.2-1.5-1.4-1.9l-2-0.7c-1.6-0.6-2.2-1.3-2.2-3.4
					c0-1.3,0.5-2.3,1.4-3c0.7-0.6,1.7-0.9,2.9-0.9c1.4,0,2.4,0.3,3.1,0.9c0.9,0.7,1.2,1.8,1.2,3.2H201c0-0.5,0-0.9-0.3-1.2
					c-0.2-0.2-0.4-0.3-0.9-0.3c-0.4,0-0.7,0.2-0.9,0.4c-0.2,0.2-0.3,0.5-0.3,1c0,0.9,0.2,1.1,1.1,1.4l1.9,0.7c2,0.7,2.5,1.5,2.5,3.9
					C204.2,77.8,204,78.8,203.2,79.5z"/>
			</g>
		</g>
	</g>
	<g>
		<g>
			<polygon class="st0" points="67.9,0.5 57.2,12.2 54.1,9.9 52.4,9.9 57.2,17.7 69.6,0.5 			"/>
		</g>
	</g>
</g>
</svg>
