<?xml version="1.0" encoding="utf-8"?>
<!-- Generator: $$$/GeneralStr/196=Adobe Illustrator 27.6.0, SVG Export Plug-In . SVG Version: 6.00 Build 0)  -->
<svg version="1.1" id="Capa_1" xmlns="http://www.w3.org/2000/svg" xmlns:xlink="http://www.w3.org/1999/xlink" x="0px" y="0px"
	 viewBox="0 0 314.5 102.7" style="enable-background:new 0 0 314.5 102.7;" xml:space="preserve">
<style type="text/css">
	.st0{fill:#848484;}
</style>
<g id="ASC">
	<g>
		<path class="st0" d="M87.9,70.1l3.6-10.3H61.7l-13,10.3H27.5c10.5-8.8,19.6-16.4,27.3-23s14.5-12.2,20.2-17h21.7l-0.5,0.4L80,44.3
			h15.4l4.9-14.2h18.1l-13.8,40H87.9z M117.4,6.6c1.4,0.5,2.7,1.2,3.7,2.1s1.7,2,2.2,3.3c0.4,1.3,0.4,2.7-0.1,4.2l-2.2,6.4H84
			c4-3.3,7.3-6.1,10-8.2c2.7-2.2,4.9-3.9,6.6-5.1s3.1-2.1,4.2-2.6s1.9-0.8,2.6-0.8h5.6C114.5,5.9,115.9,6.1,117.4,6.6z"/>
		<path class="st0" d="M174.9,53.1c1-0.3,1.8-0.7,2.2-1.3c0.5-0.6,1-1.4,1.5-2.3c0.8-2.1,0.5-3.4-1.1-3.8H129
			c-1.5-0.5-3-1.4-4.3-2.8c-1.4-1.4-1.8-3-1.4-4.9l2.8-7.9h70.2c1.3,0.2,2.2,0.8,2.8,1.9c0.6,1.1,0.9,2.4,1,3.9s0,3.2-0.3,5.1
			c-0.3,1.9-0.7,3.6-1.3,5.2l-2.9,8.7c-0.6,1.6-1.3,3.3-2,5.1s-1.6,3.4-2.7,4.9c-1.1,1.5-2.3,2.7-3.8,3.7c-1.4,1-3.1,1.5-5,1.5
			h-69.3l5.9-17H174.9z M206.1,22.6h-77.5l0.5-1.4c0.6-1.7,1.3-3.5,2.2-5.3s2-3.5,3.2-5s2.6-2.7,4-3.6s3-1.4,4.7-1.4h68.5
			L206.1,22.6z"/>
		<path class="st0" d="M205.2,69c-0.9-0.7-1.7-1.6-2.4-2.6c-0.7-1.1-1.1-2.2-1.4-3.4c-0.3-1.2-0.2-2.3,0.1-3.3l10.2-29.6h17.9
			L222.7,50c-0.3,0.9-0.4,1.7-0.3,2.2c0.2,0.6,0.8,0.8,1.9,0.8h51.4l-5.9,17H208C207.1,70.1,206.1,69.7,205.2,69z M286.2,22.6h-72
			l2.2-6.4c0.3-1,1.1-2.1,2.2-3.3c1.1-1.2,2.3-2.3,3.7-3.3s2.8-1.9,4.2-2.6s2.7-1.1,3.7-1.1H292L286.2,22.6z"/>
	</g>
	<g>
		<path class="st0" d="M32.7,92.7L32.4,90h-4.8l-1.3,2.6h-2.8l7.8-14.3h2.1l2.1,14.3L32.7,92.7L32.7,92.7z M31.5,82.4l-2.9,5.5h3.6
			L31.5,82.4z"/>
		<path class="st0" d="M46.2,81.6c-0.6-0.7-1.4-1-2.5-1c-1.7,0-2.6,1.1-2.6,2.2c0,0.9,0.7,1.2,1.5,1.4l1.2,0.3
			c2.4,0.6,3.2,1.7,3.2,3.7c0,3.2-2.7,4.7-5.7,4.7c-2.2,0-3.6-0.5-4.8-2l1.9-1.7c0.8,0.9,1.8,1.3,3.1,1.3c1.6,0,2.8-0.9,2.8-2.1
			c0-1-0.6-1.4-1.5-1.6l-1.2-0.3c-2.3-0.6-3.3-1.9-3.3-3.4c0-2.7,2.1-4.8,5.6-4.8c1.7,0,3.1,0.6,4.1,1.7L46.2,81.6z"/>
		<path class="st0" d="M57.5,81.6c-0.6-0.7-1.4-1-2.5-1c-1.7,0-2.6,1.1-2.6,2.2c0,0.9,0.7,1.2,1.5,1.4l1.2,0.3
			c2.4,0.6,3.2,1.7,3.2,3.7c0,3.2-2.7,4.7-5.7,4.7c-2.2,0-3.6-0.5-4.8-2l1.9-1.7c0.8,0.9,1.8,1.3,3.1,1.3c1.6,0,2.8-0.9,2.8-2.1
			c0-1-0.6-1.4-1.5-1.6l-1.2-0.3c-2.3-0.6-3.3-1.9-3.3-3.4c0-2.7,2.1-4.8,5.6-4.8c1.7,0,3.1,0.6,4.1,1.7L57.5,81.6z"/>
		<path class="st0" d="M62.3,92.7h-2.6l2.9-14.3h2.6L62.3,92.7z"/>
		<path class="st0" d="M74.6,81.6c-0.6-0.7-1.4-1-2.5-1c-1.7,0-2.6,1.1-2.6,2.2c0,0.9,0.7,1.2,1.5,1.4l1.2,0.3
			c2.4,0.6,3.2,1.7,3.2,3.7c0,3.2-2.7,4.7-5.7,4.7c-2.2,0-3.6-0.5-4.8-2l1.9-1.7c0.8,0.9,1.8,1.3,3.1,1.3c1.6,0,2.8-0.9,2.8-2.1
			c0-1-0.6-1.4-1.5-1.6L70,86.5c-2.3-0.6-3.3-1.9-3.3-3.4c0-2.7,2.1-4.8,5.6-4.8c1.7,0,3.1,0.6,4.1,1.7L74.6,81.6z"/>
		<path class="st0" d="M87.8,80.7h-3.5l-2.4,11.9h-2.6l2.4-11.9H78l0.5-2.3h9.8L87.8,80.7z"/>
		<path class="st0" d="M96.8,81.6c-0.6-0.7-1.4-1-2.5-1c-1.7,0-2.6,1.1-2.6,2.2c0,0.9,0.7,1.2,1.5,1.4l1.2,0.3
			c2.4,0.6,3.2,1.7,3.2,3.7c0,3.2-2.7,4.7-5.7,4.7c-2.2,0-3.6-0.5-4.8-2l1.9-1.7c0.8,0.9,1.8,1.3,3.1,1.3c1.6,0,2.8-0.9,2.8-2.1
			c0-1-0.6-1.4-1.5-1.6l-1.2-0.3c-2.3-0.6-3.3-1.9-3.3-3.4c0-2.7,2.1-4.8,5.6-4.8c1.7,0,3.2,0.6,4.1,1.7L96.8,81.6z"/>
		<path class="st0" d="M113.2,89.7l1.9,2.9h-3l-0.8-1.2c-0.9,0.7-2.2,1.3-3.8,1.3c-1.9,0-3.9-0.9-3.9-3.6c0-2.5,1.5-3.7,3.4-4.8
			c-0.5-0.8-0.9-1.5-0.9-2.5c0-1.5,0.9-3.7,4.1-3.7c2.8,0,3.2,2,3.2,3c0,1.2-0.8,2.2-2,3l-1.2,0.7l1.7,2.8c0.6-0.6,1-1.5,1.2-2.4
			h2.4C115.2,87.2,114.5,88.5,113.2,89.7z M108,86.2c-1.2,0.7-1.9,1.5-1.9,2.7c0,1,0.7,1.7,1.7,1.7c0.8,0,1.6-0.4,2.3-1L108,86.2z
			 M110,80.3c-1,0-1.4,0.9-1.4,1.6c0,0.4,0.2,0.9,0.5,1.4c0.1-0.1,0.6-0.4,0.6-0.4c0.7-0.4,1.2-0.9,1.2-1.5
			C111,80.7,110.6,80.3,110,80.3z"/>
		<path class="st0" d="M130.7,81.6c-0.6-0.7-1.4-1-2.5-1c-1.7,0-2.6,1.1-2.6,2.2c0,0.9,0.7,1.2,1.5,1.4l1.2,0.3
			c2.4,0.6,3.2,1.7,3.2,3.7c0,3.2-2.7,4.7-5.7,4.7c-2.2,0-3.6-0.5-4.8-2l1.9-1.7c0.8,0.9,1.8,1.3,3.1,1.3c1.6,0,2.8-0.9,2.8-2.1
			c0-1-0.6-1.4-1.5-1.6l-1.2-0.3c-2.3-0.6-3.2-1.9-3.2-3.4c0-2.7,2.1-4.8,5.6-4.8c1.7,0,3.1,0.6,4.1,1.7L130.7,81.6z"/>
		<path class="st0" d="M141.8,92.7h-8.9l2.9-14.3h2.6l-2.4,12h6.2L141.8,92.7z"/>
		<path class="st0" d="M146.6,92.7H144l2.9-14.3h2.6L146.6,92.7z"/>
		<path class="st0" d="M156.2,87.1h-2.7l-1.1,5.5h-2.6l2.9-14.3h5.1c2.4,0,3.8,1.5,3.8,3.8C161.5,84.7,159.7,87.1,156.2,87.1z
			 M157.2,80.7h-2.4l-0.8,4.1h2.4c1.7,0,2.5-1.3,2.5-2.4C158.8,81.5,158.4,80.7,157.2,80.7z"/>
		<path class="st0" d="M168.2,87.1h-2.7l-1.1,5.5h-2.6l2.9-14.3h5.1c2.4,0,3.8,1.5,3.8,3.8C173.5,84.7,171.7,87.1,168.2,87.1z
			 M169.2,80.7h-2.4l-0.8,4.1h2.4c1.7,0,2.5-1.3,2.5-2.4C170.8,81.5,170.4,80.7,169.2,80.7z"/>
		<path class="st0" d="M185,80.7h-6.3l-0.7,3.6h5.4l-0.5,2.3h-5.4l-0.7,3.7h6.4l-0.5,2.3h-9l2.9-14.3h8.9L185,80.7z"/>
		<path class="st0" d="M193.8,86.6l2,6.1h-2.9l-1.7-5.8h-2l-1.2,5.8h-2.6l2.9-14.3h5c2.9,0,3.9,1.8,3.9,3.8
			C197.1,84,196,85.8,193.8,86.6z M192.8,80.7h-2.4l-0.8,4h2.4c1.8,0,2.5-1.4,2.5-2.3C194.4,81.3,193.9,80.7,192.8,80.7z"/>
		<path class="st0" d="M211,81.7c-0.5-0.8-1.1-1.1-1.9-1.1c-0.8,0-1.4,0.3-1.9,0.8c-0.6,0.6-0.9,1.5-1.4,4.1c-0.2,1.2-0.4,2.3-0.4,3
			c0,1.1,0.7,1.9,1.9,1.9c1,0,1.7-0.5,2.2-1.1l1.5,1.9c-0.9,0.9-2.1,1.5-3.9,1.5c-2.9,0-4.5-1.9-4.5-4.1c0-0.7,0.1-1.6,0.4-3.2
			c0.6-3.2,1-4.5,2.1-5.6s2.6-1.6,4-1.6c1.9,0,2.9,0.8,3.6,1.7L211,81.7z"/>
		<path class="st0" d="M222,92.7h-8.9l2.9-14.3h2.6l-2.4,12h6.2L222,92.7z"/>
		<path class="st0" d="M234.5,87.8c-0.7,3.5-3.1,5-5.7,5c-2.4,0-4.4-1.5-4.4-4.1c0-0.4,0.1-0.9,0.1-1.2l1.8-9.1h2.6l-1.9,9.3
			c0,0.2-0.1,0.6-0.1,0.9c0,1,0.5,1.9,1.9,1.9c1.5,0,2.6-1,3-2.9l1.8-9.1h2.6L234.5,87.8z"/>
		<path class="st0" d="M247.6,80.7h-3.5l-2.4,11.9h-2.6l2.4-11.9h-3.6l0.5-2.3h9.8L247.6,80.7z"/>
		<path class="st0" d="M255.9,81.7c-0.5-0.8-1.1-1.1-1.9-1.1c-0.8,0-1.4,0.3-1.9,0.8c-0.6,0.6-0.9,1.5-1.4,4.1
			c-0.2,1.2-0.4,2.3-0.4,3c0,1.1,0.7,1.9,1.9,1.9c1,0,1.7-0.5,2.2-1.1l1.5,1.9c-0.9,0.9-2.1,1.5-3.9,1.5c-2.9,0-4.5-1.9-4.5-4.1
			c0-0.7,0.1-1.6,0.4-3.2c0.6-3.2,1-4.5,2.1-5.6s2.6-1.6,4-1.6c1.9,0,2.9,0.8,3.6,1.7L255.9,81.7z"/>
		<path class="st0" d="M267.9,92.7h-2.6l1.2-6.1h-4.6l-1.2,6.1H258l2.9-14.3h2.6l-1.2,5.9h4.6l1.2-5.9h2.6L267.9,92.7z"/>
	</g>
</g>
</svg>
