<?xml version="1.0" encoding="utf-8"?>
<!-- Generator: $$$/GeneralStr/196=Adobe Illustrator 27.6.0, SVG Export Plug-In . SVG Version: 6.00 Build 0)  -->
<svg version="1.1" id="Capa_1" xmlns="http://www.w3.org/2000/svg" xmlns:xlink="http://www.w3.org/1999/xlink" x="0px" y="0px"
	 viewBox="0 0 314.5 102.7" style="enable-background:new 0 0 314.5 102.7;" xml:space="preserve">
<style type="text/css">
	.st0{fill:#848484;}
</style>
<g id="Fuel_Injection">
	<path class="st0" d="M8.4,28.2L0,73.5h306.1l8.4-45.2L8.4,28.2L8.4,28.2z M76.7,60.2l-1.4,6.5H56.9l6.5-30.3h18L80,42.9H69.9
		l-1.1,5.2h9.4l-1.4,6.2h-9.4l-1.3,6h10.5L76.7,60.2z M34.2,47.9l-1.4,6.2h-9.4l-2.6,12.5h-7.9l6.5-30.3h18L36,42.8H25.9L24.8,48
		h9.4L34.2,47.9z M35.2,56.2l4.3-19.9h7.9l-4.7,21.9c-0.1,0.7-0.2,1.3-0.2,1.8c0,1.3,0.6,1.9,1.8,1.9s2.6-1.2,3.1-3.7l4.7-21.9H60
		l-4.3,19.9c-0.9,4.1-2.4,7-4.5,8.7c-1.9,1.6-4.6,2.3-8.1,2.3s-4.9-0.5-6.2-1.5c-1.5-1.1-2.2-2.9-2.2-5.4S34.9,57.7,35.2,56.2
		L35.2,56.2z M84.6,36.3h7.9l-5.1,23.9h9.7l-1.4,6.5H78.1L84.6,36.3L84.6,36.3z M303.3,70.1H103.4l12.2-18.4L109,31.6h201.5
		L303.3,70.1L303.3,70.1z"/>
	<polygon class="st0" points="125,36.3 118.5,66.6 126.4,66.6 132.9,36.3 	"/>
	<polygon class="st0" points="150.3,36.3 146.3,55 146.2,55 145.1,36.3 136.3,36.3 129.8,66.6 137.2,66.6 141.2,47.9 141.3,47.9 
		142.6,66.6 151.3,66.6 157.7,36.3 	"/>
	<path class="st0" d="M170.9,36.3l-4.7,22c-0.5,2.4-1.4,3.6-2.8,3.6s-1.5-0.6-1.5-1.8s0-1.1,0.2-1.8l0.3-1.5h-7.1v0.6
		c-0.4,1.3-0.6,2.5-0.6,3.4c0,4.3,2.5,6.4,7.6,6.4s6-0.8,7.9-2.3c2-1.6,3.4-4.2,4.2-7.8l4.5-20.9H171L170.9,36.3z"/>
	<polygon class="st0" points="188.4,42.8 198.5,42.8 199.9,36.3 181.9,36.3 175.4,66.6 193.8,66.6 195.2,60.2 184.7,60.2 186,54.1 
		195.4,54.1 196.8,47.9 187.3,47.9 	"/>
	<path class="st0" d="M213.2,35.7c-4.1,0-7.2,1.2-9.2,3.5c-2.1,2.3-3.7,6.4-5,12.3c-0.8,3.5-1.1,6.3-1.1,8.3s0.7,4.6,2,5.7
		c1.3,1.2,3.5,1.7,6.7,1.7c6.7,0,10.8-3.5,12.3-10.5l0.5-2.3h-7.7c-0.6,2.9-1.2,4.9-1.7,5.9s-1.3,1.5-2.2,1.5S206,61,206,59.5
		s0.4-4,1.3-8.1c0.9-4.3,1.6-7,2.2-8.3c0.6-1.4,1.6-2.1,2.7-2.1s1.6,0.6,1.6,1.9s-0.1,1.5-0.3,2.6l-0.4,1.7h7.7l0.4-1.9
		c0.2-1.1,0.3-2.2,0.3-3.1c0-4.4-2.7-6.5-8.1-6.5L213.2,35.7z"/>
	<polygon class="st0" points="243.8,36.3 224,36.3 222.6,43 228.5,43 223.5,66.6 231.4,66.6 236.4,43 242.4,43 	"/>
	<polygon class="st0" points="245.3,36.3 238.9,66.6 246.8,66.6 253.2,36.3 	"/>
	<path class="st0" d="M275.2,43.8c0-2.8-0.7-4.9-2-6.2s-3.5-1.9-6.4-1.9s-7.1,1.2-9.2,3.6c-2.1,2.4-3.8,6.5-5,12.2
		c-0.7,3.1-1,5.7-1,7.7s0.7,4.9,2,6.2c1.3,1.3,3.5,1.9,6.5,1.9s7.1-1.2,9.2-3.6s3.8-6.5,5-12.2c0.7-3.1,1-5.7,1-7.7L275.2,43.8z
		 M266.1,51.5c-0.9,4.3-1.6,7-2.2,8.3c-0.6,1.4-1.5,2.1-2.7,2.1s-1.8-0.8-1.8-2.3s0.4-4,1.3-8.1c0.9-4.3,1.6-7,2.2-8.3
		c0.7-1.4,1.6-2.1,2.7-2.1s1.8,0.8,1.8,2.3S267,47.4,266.1,51.5z"/>
	<polygon class="st0" points="290.3,55 290.3,55 289.1,36.3 280.3,36.3 273.8,66.6 281.2,66.6 285.2,47.9 285.3,47.9 286.6,66.6 
		295.3,66.6 301.7,36.3 294.3,36.3 	"/>
</g>
</svg>
