<?xml version="1.0" encoding="utf-8"?>
<!-- Generator: $$$/GeneralStr/196=Adobe Illustrator 27.6.0, SVG Export Plug-In . SVG Version: 6.00 Build 0)  -->
<svg version="1.1" id="Capa_1" xmlns="http://www.w3.org/2000/svg" xmlns:xlink="http://www.w3.org/1999/xlink" x="0px" y="0px"
	 viewBox="0 0 314.5 102.7" style="enable-background:new 0 0 314.5 102.7;" xml:space="preserve">
<style type="text/css">
	.st0{fill:#848484;}
</style>
<g id="AHO_tiene">
	<g>
		<g>
			<path class="st0" d="M124.8,53.1c-0.7,0.6-1.8,1-3.3,1s-2.6-0.4-3.3-1c-0.7-0.7-1-1.6-1-2.9h3c0,0.5,0,0.9,0.3,1.2
				c0.2,0.2,0.5,0.3,0.9,0.3c0.5,0,0.8-0.1,1-0.3s0.3-0.6,0.3-1.1c0-1.3-0.2-1.5-1.3-1.9l-1.9-0.7c-1.5-0.6-2.2-1.3-2.2-3.3
				c0-1.2,0.4-2.3,1.4-2.9c0.7-0.5,1.6-0.8,2.8-0.8c1.3,0,2.3,0.3,3,0.8c0.8,0.7,1.2,1.7,1.2,3.1h-3c0-0.5,0-0.9-0.3-1.2
				c-0.2-0.2-0.4-0.3-0.9-0.3c-0.4,0-0.7,0.2-0.9,0.4c-0.2,0.2-0.3,0.5-0.3,0.9c0,0.8,0.2,1.1,1,1.4l1.9,0.7
				c1.9,0.7,2.5,1.4,2.5,3.8C125.8,51.5,125.6,52.5,124.8,53.1z"/>
			<path class="st0" d="M128.3,54V40.7h3V54H128.3z"/>
			<path class="st0" d="M141.2,53.1c-0.7,0.6-1.8,1-3.3,1s-2.6-0.4-3.3-1c-0.7-0.7-1-1.6-1-2.9h3c0,0.5,0,0.9,0.3,1.2
				c0.2,0.2,0.5,0.3,0.9,0.3c0.5,0,0.8-0.1,1-0.3s0.3-0.6,0.3-1.1c0-1.3-0.2-1.5-1.3-1.9l-1.9-0.7c-1.5-0.6-2.2-1.3-2.2-3.3
				c0-1.2,0.4-2.3,1.4-2.9c0.7-0.5,1.6-0.8,2.8-0.8c1.3,0,2.3,0.3,3,0.8c0.8,0.7,1.2,1.7,1.2,3.1h-3c0-0.5,0-0.9-0.3-1.2
				c-0.2-0.2-0.4-0.3-0.9-0.3c-0.4,0-0.7,0.2-0.9,0.4s-0.3,0.5-0.3,0.9c0,0.8,0.2,1.1,1,1.4l1.9,0.7c1.9,0.7,2.5,1.4,2.5,3.8
				C142.2,51.5,142,52.5,141.2,53.1z"/>
			<path class="st0" d="M149.5,43.1V54h-3V43.1h-2.6v-2.4h8.1v2.4H149.5z"/>
			<path class="st0" d="M154.2,54V40.7h7v2.4h-4v3h3.4v2.4h-3.4v3.1h4V54H154.2z"/>
			<path class="st0" d="M171.4,54v-6.9l-1.7,4.5h-1.6l-1.6-4.5V54h-3V40.7h2.7l2.8,6.5l2.8-6.5h2.7V54H171.4z"/>
			<path class="st0" d="M183.9,54l-0.5-2.1h-3.5l-0.5,2.1h-3.2l3.9-13.3h3L187,54H183.9z M181.7,44.6l-1.2,4.9h2.3L181.7,44.6z"/>
			<path class="st0" d="M200.7,52.7c-0.7,0.7-1.6,1.3-3.3,1.3h-4.3V40.7h4.3c1.7,0,2.6,0.6,3.3,1.3c1.2,1.2,1.1,3.6,1.1,5.4
				C201.8,49.1,201.9,51.5,200.7,52.7z M198.4,43.7c-0.2-0.3-0.6-0.6-1.1-0.6h-1.2v8.5h1.2c0.6,0,0.9-0.2,1.1-0.6
				c0.4-0.6,0.4-2.2,0.4-3.7S198.8,44.3,198.4,43.7z"/>
			<path class="st0" d="M204.2,54V40.7h7v2.4h-4v3h3.4v2.4h-3.4v3.1h4V54H204.2z"/>
			<path class="st0" d="M217.8,54V40.7h7v2.4h-4v3h3.4v2.4h-3.4v3.1h4V54H217.8z"/>
			<path class="st0" d="M233.4,54l-3.2-6.5V54h-3V40.7h2.6l3.2,6.5v-6.5h3V54H233.4z"/>
			<path class="st0" d="M245.8,53.2c-0.8,0.6-1.7,1-2.9,1c-1.7,0-2.6-0.6-3.3-1.3c-1.2-1.3-1.1-3.7-1.1-5.4s-0.1-4.2,1.1-5.5
				c0.7-0.7,1.6-1.3,3.3-1.3c1.3,0,2.2,0.3,2.9,0.9c0.8,0.7,1.3,1.7,1.3,3h-3c0-0.4-0.1-0.7-0.2-1c-0.2-0.3-0.5-0.5-1-0.5
				c-0.6,0-0.8,0.2-1,0.5c-0.4,0.6-0.4,2.3-0.4,3.9c0,1.6,0,3.3,0.4,3.9c0.2,0.3,0.5,0.5,1,0.5c0.6,0,0.9-0.2,1-0.5
				c0.2-0.3,0.2-0.7,0.2-1h3C247.1,51.5,246.6,52.5,245.8,53.2z"/>
			<path class="st0" d="M249.5,54V40.7h7v2.4h-4v3h3.4v2.4h-3.4v3.1h4V54H249.5z"/>
			<path class="st0" d="M265.1,54l-3.2-6.5V54h-3V40.7h2.6l3.2,6.5v-6.5h3V54H265.1z"/>
			<path class="st0" d="M278.2,52.7c-0.7,0.7-1.6,1.3-3.3,1.3h-4.3V40.7h4.3c1.7,0,2.6,0.6,3.3,1.3c1.2,1.2,1.1,3.6,1.1,5.4
				C279.3,49.1,279.4,51.5,278.2,52.7z M275.9,43.7c-0.2-0.3-0.6-0.6-1.1-0.6h-1.2v8.5h1.2c0.6,0,0.9-0.2,1.1-0.6
				c0.4-0.6,0.4-2.2,0.4-3.7S276.3,44.3,275.9,43.7z"/>
			<path class="st0" d="M281.7,54V40.7h3V54H281.7z"/>
			<path class="st0" d="M295.3,52.7c-0.7,0.7-1.6,1.3-3.3,1.3h-4.3V40.7h4.3c1.7,0,2.6,0.6,3.3,1.3c1.2,1.2,1.1,3.6,1.1,5.4
				C296.4,49.1,296.5,51.5,295.3,52.7z M293,43.7c-0.2-0.3-0.6-0.6-1.1-0.6h-1.2v8.5h1.2c0.6,0,0.9-0.2,1.1-0.6
				c0.4-0.6,0.4-2.2,0.4-3.7S293.4,44.3,293,43.7z"/>
			<path class="st0" d="M306.1,52.8c-0.7,0.7-1.6,1.3-3.3,1.3c-1.7,0-2.6-0.6-3.3-1.3c-1.2-1.3-1.1-3.7-1.1-5.5s-0.1-4.2,1.1-5.5
				c0.7-0.7,1.6-1.3,3.3-1.3c1.7,0,2.6,0.6,3.3,1.3c1.2,1.3,1.1,3.7,1.1,5.5C307.3,49.1,307.4,51.5,306.1,52.8z M303.8,43.5
				c-0.2-0.3-0.5-0.5-1-0.5c-0.6,0-0.8,0.2-1,0.5c-0.4,0.6-0.4,2.3-0.4,3.9c0,1.6,0,3.3,0.4,3.9c0.2,0.3,0.5,0.5,1,0.5
				c0.6,0,0.9-0.2,1-0.5c0.4-0.6,0.4-2.3,0.4-3.9C304.2,45.7,304.2,44.1,303.8,43.5z"/>
			<path class="st0" d="M124.3,72.7l-0.5-2.1h-3.5l-0.5,2.1h-3.2l3.9-13.3h3l3.9,13.3H124.3z M122.1,63.3l-1.2,4.9h2.3L122.1,63.3z"
				/>
			<path class="st0" d="M136.6,71.7c-0.8,0.7-1.9,1.1-3.2,1.1s-2.3-0.4-3.2-1.1c-0.7-0.7-1.1-1.5-1.1-2.6v-9.7h3v9.8
				c0,0.9,0.6,1.2,1.3,1.2s1.3-0.3,1.3-1.2v-9.8h3v9.7C137.8,70.2,137.4,71.1,136.6,71.7z"/>
			<path class="st0" d="M145.4,61.8v10.9h-3V61.8h-2.6v-2.4h8.1v2.4H145.4z"/>
			<path class="st0" d="M157.1,71.5c-0.7,0.7-1.6,1.3-3.3,1.3s-2.6-0.6-3.3-1.3c-1.2-1.3-1.1-3.7-1.1-5.5s-0.1-4.2,1.1-5.5
				c0.7-0.7,1.6-1.3,3.3-1.3s2.6,0.6,3.3,1.3c1.2,1.3,1.1,3.7,1.1,5.5C158.2,67.8,158.3,70.2,157.1,71.5z M154.8,62.2
				c-0.2-0.3-0.5-0.5-1-0.5c-0.6,0-0.8,0.2-1,0.5c-0.4,0.6-0.4,2.3-0.4,3.9s0,3.3,0.4,3.9c0.2,0.3,0.5,0.5,1,0.5
				c0.6,0,0.9-0.2,1-0.5c0.4-0.6,0.4-2.3,0.4-3.9C155.2,64.4,155.2,62.8,154.8,62.2z"/>
			<path class="st0" d="M168.5,72.7v-6.9l-1.7,4.5h-1.6l-1.6-4.5v6.9h-3V59.4h2.7l2.8,6.5l2.8-6.5h2.7v13.3
				C171.6,72.7,168.5,72.7,168.5,72.7z"/>
			<path class="st0" d="M181,72.7l-0.5-2.1H177l-0.5,2.1h-3.2l3.9-13.3h3l3.9,13.3H181z M179.5,58.6h-1.9l1.6-2.7h2.3L179.5,58.6z
				 M178.8,63.3l-1.2,4.9h2.3L178.8,63.3z"/>
			<path class="st0" d="M190.2,61.8v10.9h-3V61.8h-2.6v-2.4h8.1v2.4H190.2z"/>
			<path class="st0" d="M194.9,72.7V59.4h3v13.3C197.9,72.7,194.9,72.7,194.9,72.7z"/>
			<path class="st0" d="M207.7,71.9c-0.8,0.6-1.7,0.9-2.9,0.9c-1.7,0-2.6-0.6-3.3-1.3c-1.2-1.3-1.1-3.7-1.1-5.4
				c0-1.8-0.1-4.2,1.1-5.5c0.7-0.7,1.6-1.3,3.3-1.3c1.3,0,2.2,0.3,2.9,0.9c0.8,0.7,1.3,1.7,1.3,3h-3c0-0.4-0.1-0.7-0.2-1
				c-0.2-0.3-0.5-0.5-1-0.5c-0.6,0-0.8,0.2-1,0.5c-0.4,0.6-0.4,2.3-0.4,3.9s0,3.3,0.4,3.9c0.2,0.3,0.5,0.5,1,0.5
				c0.6,0,0.9-0.2,1-0.5c0.2-0.3,0.2-0.7,0.2-1h3C209,70.2,208.5,71.2,207.7,71.9z"/>
			<path class="st0" d="M218.6,71.5c-0.7,0.7-1.6,1.3-3.3,1.3s-2.6-0.6-3.3-1.3c-1.2-1.3-1.1-3.7-1.1-5.5s-0.1-4.2,1.1-5.5
				c0.7-0.7,1.6-1.3,3.3-1.3s2.6,0.6,3.3,1.3c1.2,1.3,1.1,3.7,1.1,5.5C219.7,67.8,219.8,70.2,218.6,71.5z M216.3,62.2
				c-0.2-0.3-0.5-0.5-1-0.5c-0.6,0-0.8,0.2-1,0.5c-0.4,0.6-0.4,2.3-0.4,3.9s0,3.3,0.4,3.9c0.2,0.3,0.5,0.5,1,0.5
				c0.6,0,0.9-0.2,1-0.5c0.4-0.6,0.4-2.3,0.4-3.9C216.7,64.4,216.7,62.8,216.3,62.2z"/>
			<path class="st0" d="M233.9,71.4c-0.7,0.7-1.6,1.3-3.3,1.3h-4.3V59.4h4.3c1.7,0,2.6,0.6,3.3,1.3c1.2,1.2,1.1,3.6,1.1,5.4
				C235.1,67.8,235.2,70.2,233.9,71.4z M231.7,62.4c-0.2-0.3-0.6-0.6-1.1-0.6h-1.2v8.5h1.2c0.6,0,0.9-0.2,1.1-0.6
				c0.4-0.6,0.4-2.2,0.4-3.7S232,63,231.7,62.4z"/>
			<path class="st0" d="M237.5,72.7V59.4h7v2.4h-4v3h3.4v2.4h-3.4v3.1h4v2.4C244.5,72.7,237.5,72.7,237.5,72.7z"/>
			<path class="st0" d="M251,72.7V59.4h3v10.9h4v2.4C258,72.7,251,72.7,251,72.7z"/>
			<path class="st0" d="M267.1,71.7c-0.8,0.7-1.9,1.1-3.2,1.1c-1.3,0-2.3-0.4-3.2-1.1c-0.7-0.7-1.1-1.5-1.1-2.6v-9.7h3v9.8
				c0,0.9,0.6,1.2,1.3,1.2c0.7,0,1.3-0.3,1.3-1.2v-9.8h3v9.7C268.3,70.2,267.9,71.1,267.1,71.7z"/>
			<path class="st0" d="M278,71.9c-0.8,0.6-1.7,0.9-2.9,0.9c-1.7,0-2.6-0.6-3.3-1.3c-1.2-1.3-1.1-3.7-1.1-5.4c0-1.8-0.1-4.2,1.1-5.5
				c0.7-0.7,1.6-1.3,3.3-1.3c1.3,0,2.2,0.3,2.9,0.9c0.8,0.7,1.3,1.7,1.3,3h-3c0-0.4-0.1-0.7-0.2-1c-0.2-0.3-0.5-0.5-1-0.5
				c-0.6,0-0.8,0.2-1,0.5c-0.4,0.6-0.4,2.3-0.4,3.9s0,3.3,0.4,3.9c0.2,0.3,0.5,0.5,1,0.5c0.6,0,0.9-0.2,1-0.5c0.2-0.3,0.2-0.7,0.2-1
				h3C279.3,70.2,278.8,71.2,278,71.9z"/>
			<path class="st0" d="M281.7,72.7V59.4h7v2.4h-4v3h3.4v2.4h-3.4v3.1h4v2.4C288.7,72.7,281.7,72.7,281.7,72.7z"/>
			<path class="st0" d="M298.2,71.8c-0.7,0.6-1.8,1-3.3,1s-2.6-0.4-3.3-1c-0.7-0.7-1-1.6-1-2.9h3c0,0.5,0,0.9,0.3,1.2
				c0.2,0.2,0.5,0.3,0.9,0.3c0.5,0,0.8-0.1,1-0.3c0.2-0.2,0.3-0.6,0.3-1.1c0-1.3-0.2-1.5-1.3-1.9l-1.9-0.7c-1.5-0.6-2.2-1.3-2.2-3.3
				c0-1.2,0.4-2.3,1.4-2.9c0.7-0.5,1.6-0.8,2.8-0.8c1.3,0,2.3,0.3,3,0.8c0.8,0.7,1.2,1.7,1.2,3.1h-3c0-0.5,0-0.9-0.3-1.2
				c-0.2-0.2-0.4-0.3-0.9-0.3c-0.4,0-0.7,0.2-0.9,0.4c-0.2,0.2-0.3,0.5-0.3,1c0,0.8,0.2,1.1,1,1.4l1.9,0.7c1.9,0.7,2.5,1.4,2.5,3.8
				C299.1,70.2,299,71.2,298.2,71.8z"/>
		</g>
		<g>
			<path class="st0" d="M63.6,32.4c-1.1,0-2.3-0.1-3.5-0.1s-2.3,0-3.5,0.1c-0.8,2.1-1.7,4.7-2.6,7.5c-3.4,11.5-6.1,28.5-1.7,48.5
				c0.5,2.1,1,4.3,1.6,6.4c2,0.1,4.1,0.2,6.2,0.2c0.3,0,0.6,0,0.9,0c29.7-0.3,47.7-14.2,47.7-31.3C108.7,47.1,91.8,33.5,63.6,32.4z
				 M59.4,88.7c-4.5-20.1-1.8-37.3,1.7-48.9c26.1,0.5,41.8,11.2,41.8,24.4C102.9,77.7,86.5,88.6,59.4,88.7z"/>
			<polygon class="st0" points="10.6,45.5 10.6,50 10.6,51 42.2,42.8 43.4,42.5 46.9,41.6 46.9,36.2 40.9,37.7 			"/>
			<polygon class="st0" points="10.6,101.6 10.9,101.5 46.2,92.4 46.2,87 10.6,96.2 			"/>
			<polygon class="st0" points="44.4,54.3 44.4,48.9 10.6,57.6 10.6,62.7 10.6,63 43.4,54.6 			"/>
			<polygon class="st0" points="43.4,61.6 10.6,70 10.6,75.5 43.4,67 			"/>
			<polygon class="st0" points="44.4,79.7 44.4,74.3 10.6,83 10.6,88.2 10.6,88.4 43.4,80 			"/>
		</g>
	</g>
	<g>
		<g>
			<polygon class="st0" points="75.5,1.4 64.9,13.1 61.9,10.7 60.2,10.7 64.9,18.5 77.2,1.4 			"/>
		</g>
	</g>
</g>
</svg>
