<?xml version="1.0" encoding="utf-8"?>
<!-- Generator: $$$/GeneralStr/196=Adobe Illustrator 27.6.0, SVG Export Plug-In . SVG Version: 6.00 Build 0)  -->
<svg version="1.1" id="Capa_1" xmlns="http://www.w3.org/2000/svg" xmlns:xlink="http://www.w3.org/1999/xlink" x="0px" y="0px"
	 viewBox="0 0 314.5 102.7" style="enable-background:new 0 0 314.5 102.7;" xml:space="preserve">
<style type="text/css">
	.st0{fill:#848484;}
</style>
<g id="TCS">
	<g>
		<path class="st0" d="M3.6,24.8L9.5,7.7H101l-5.8,17.1H62.3l-16.6,48H23.3l16.6-48.1L3.6,24.8L3.6,24.8z"/>
		<path class="st0" d="M228.5,28.4c-0.8,2.2-0.1,3.5,2.1,3.9H291c1.7,0,3,0.5,3.9,1.6c0.9,1,1.5,2.4,1.8,4s0.3,3.4,0,5.3
			c-0.3,1.9-0.7,3.8-1.3,5.5l-3,8.8c-0.6,1.6-1.3,3.4-2.1,5.2c-0.8,1.8-1.8,3.5-3,5s-2.7,2.8-4.3,3.7c-1.7,1-3.7,1.5-6,1.5H104.5
			c-1.3,0-2.5-0.4-3.8-1c-1.2-0.7-2.3-1.6-3.2-2.7c-0.9-1.1-1.6-2.2-1.9-3.4c-0.4-1.2-0.4-2.3-0.1-3.4l15.2-44.2
			c0.3-1,1.1-2.2,2.4-3.4c1.2-1.2,2.7-2.3,4.3-3.4c1.6-1,3.3-1.9,5-2.7c1.7-0.7,3.2-1.1,4.5-1.1h76.6l-5.8,17.1H134
			c-1.4,0-2.4,0.3-3,1c-0.7,0.6-1.2,1.5-1.6,2.5L121,52.5c-0.4,1-0.4,1.7-0.1,2.3s1.1,0.8,2.5,0.8h143.4c1.3-0.3,2.2-0.7,2.7-1.3
			s1.1-1.4,1.7-2.3c0.4-1,0.5-1.8,0.3-2.5s-0.9-1.2-2.1-1.4h-60c-1-0.3-1.9-0.6-2.9-1.1s-1.9-1.1-2.7-1.7c-0.8-0.7-1.4-1.4-1.8-2.3
			c-0.4-0.8-0.5-1.7-0.3-2.6l6-17.1c0.6-1.7,1.4-3.5,2.4-5.4s2.2-3.5,3.5-5.1c1.3-1.5,2.9-2.7,4.7-3.7c1.8-0.9,3.7-1.4,5.8-1.4h84.8
			L303,24.8h-69.8c-1.5,0.4-2.5,0.9-3,1.3C229.7,26.5,229.1,27.3,228.5,28.4z"/>
	</g>
	<g>
		<path class="st0" d="M21.9,89.9c0.1-0.3,0.4-0.5,0.7-0.5h1.7c0.4,0,0.5,0.2,0.4,0.5l-0.3,1c-0.3,1-0.9,1.7-1.8,2.2
			c-0.8,0.6-1.9,0.8-3,0.8s-2-0.3-2.4-0.8s-0.5-1.3-0.2-2.2l2.6-7.1c0.3-1,0.9-1.7,1.8-2.3c0.9-0.5,1.9-0.8,3-0.8s2,0.3,2.4,0.8
			s0.5,1.3,0.2,2.3l-0.4,1c-0.1,0.3-0.4,0.5-0.8,0.5h-1.7c-0.4,0-0.5-0.2-0.4-0.5l0.3-1c0.1-0.3,0.1-0.5,0-0.6
			c0-0.2-0.2-0.2-0.4-0.2s-0.6,0-0.8,0.2s-0.4,0.4-0.5,0.6l-2.6,7.1c-0.1,0.3-0.1,0.5,0,0.6c0.1,0.2,0.3,0.2,0.6,0.2
			c0.3,0,0.5-0.1,0.7-0.2s0.4-0.4,0.5-0.6L21.9,89.9z"/>
		<path class="st0" d="M32.3,93.2c-0.4-0.5-0.5-1.3-0.2-2.2l2.6-7.1c0.3-1,0.9-1.7,1.8-2.3c0.9-0.5,1.9-0.8,3-0.8s2,0.3,2.4,0.8
			s0.5,1.3,0.2,2.3L39.5,91c-0.3,1-0.9,1.7-1.8,2.2c-0.8,0.6-1.9,0.8-3,0.8C33.6,94,32.8,93.7,32.3,93.2z M36.3,91.5
			c0.2-0.1,0.4-0.4,0.5-0.6l2.6-7.1c0.1-0.3,0.1-0.5,0-0.6C39.2,83,39,83,38.7,83s-0.5,0.1-0.7,0.2c-0.2,0.2-0.4,0.4-0.5,0.6
			L35,90.9c-0.1,0.3-0.1,0.5,0,0.6c0.1,0.2,0.3,0.2,0.6,0.2C35.8,91.7,36.1,91.7,36.3,91.5z"/>
		<path class="st0" d="M54.4,83.8c0,0.3,0,0.5,0,0.6l1.1-3.1c0.1-0.3,0.4-0.5,0.8-0.5H58c0.4,0,0.5,0.2,0.4,0.5l-4.4,12
			c-0.1,0.3-0.4,0.5-0.7,0.5h-1.7c-0.4,0-0.5-0.2-0.4-0.5l1.8-4.9l-0.4-2.7c-0.1-0.3-0.1-0.5,0-0.6l-3,8.2c-0.1,0.3-0.4,0.5-0.7,0.5
			h-1.7c-0.4,0-0.5-0.2-0.4-0.5l4.3-11.9c0.1-0.3,0.4-0.5,0.7-0.5h1.5c0.2,0,0.4,0,0.5,0.1s0.1,0.2,0.2,0.4L54.4,83.8z"/>
		<path class="st0" d="M67.6,83.1h-1.8c-0.4,0-0.5-0.2-0.4-0.5l0.5-1.3c0.1-0.3,0.4-0.5,0.7-0.5H73c0.4,0,0.5,0.2,0.4,0.5L73,82.6
			c-0.1,0.3-0.4,0.5-0.8,0.5h-1.8l-3.7,10.2c-0.1,0.3-0.4,0.5-0.7,0.5h-1.7c-0.4,0-0.5-0.2-0.4-0.5L67.6,83.1z"/>
		<path class="st0" d="M82,90.1c0.2-0.6,0.1-0.9-0.4-0.9h-0.7l-1.5,4.1c-0.1,0.3-0.4,0.5-0.7,0.5H77c-0.4,0-0.5-0.2-0.4-0.5
			l4.3-11.9c0.1-0.3,0.4-0.5,0.7-0.5h2.9c1.2,0,2,0.3,2.4,0.8s0.5,1.3,0.1,2.2l-0.8,2.3c-0.3,0.9-0.9,1.5-1.7,1.9
			c0.6,0.3,0.7,0.9,0.4,1.9l-1.2,3.4c-0.1,0.3-0.4,0.5-0.7,0.5h-1.7c-0.4,0-0.5-0.2-0.4-0.5L82,90.1z M83.1,83.1L81.7,87h0.6
			c0.6,0,0.9-0.3,1.2-0.9l0.8-2.1c0.2-0.6,0-0.9-0.5-0.9H83.1z"/>
		<path class="st0" d="M92.7,93.2c-0.4-0.5-0.5-1.3-0.2-2.2l2.6-7.1c0.3-1,0.9-1.7,1.8-2.3c0.9-0.5,1.9-0.8,3-0.8s2,0.3,2.4,0.8
			s0.5,1.3,0.2,2.3L99.9,91c-0.3,1-0.9,1.7-1.8,2.2c-0.8,0.6-1.9,0.8-3,0.8S93.1,93.7,92.7,93.2z M96.7,91.5
			c0.2-0.1,0.4-0.4,0.5-0.6l2.6-7.1c0.1-0.3,0.1-0.5,0-0.6C99.6,83,99.4,83,99.1,83s-0.5,0.1-0.7,0.2c-0.2,0.2-0.4,0.4-0.5,0.6
			l-2.6,7.1c-0.1,0.3-0.1,0.5,0,0.6c0.1,0.2,0.3,0.2,0.6,0.2C96.2,91.7,96.4,91.7,96.7,91.5z"/>
		<path class="st0" d="M110.6,91.6h2.8c0.4,0,0.5,0.2,0.4,0.5l-0.5,1.3c-0.1,0.3-0.4,0.5-0.7,0.5h-5.1c-0.4,0-0.5-0.2-0.4-0.5
			l4.3-11.9c0.1-0.3,0.4-0.5,0.7-0.5h1.7c0.4,0,0.5,0.2,0.4,0.5L110.6,91.6z"/>
		<path class="st0" d="M138.7,80.9c1.2,0,2,0.3,2.4,0.8s0.5,1.3,0.1,2.2l-2.5,6.8c-0.3,1-0.9,1.7-1.8,2.2c-0.8,0.5-1.8,0.8-3,0.8
			h-3.2c-0.4,0-0.5-0.2-0.4-0.5l4.3-11.9c0.1-0.3,0.4-0.5,0.7-0.5L138.7,80.9L138.7,80.9z M137,83.1l-3.1,8.4h0.9
			c0.6,0,0.9-0.3,1.2-0.9l2.4-6.7c0.2-0.6,0-0.9-0.5-0.9L137,83.1L137,83.1z"/>
		<path class="st0" d="M150.3,81.4c0.1-0.3,0.4-0.5,0.7-0.5h5.1c0.4,0,0.5,0.2,0.4,0.5l-0.5,1.3c-0.1,0.3-0.4,0.5-0.7,0.5h-2.9
			l-1.3,3.5h2.4c0.4,0,0.5,0.2,0.4,0.5l-0.5,1.3c-0.1,0.3-0.4,0.5-0.7,0.5h-2.4l-1,2.7h3c0.4,0,0.5,0.2,0.4,0.5l-0.5,1.3
			c-0.1,0.3-0.4,0.5-0.7,0.5h-5.2c-0.4,0-0.5-0.2-0.4-0.5L150.3,81.4z"/>
		<path class="st0" d="M175.2,83.1h-1.8c-0.4,0-0.5-0.2-0.4-0.5l0.5-1.3c0.1-0.3,0.4-0.5,0.7-0.5h6.5c0.4,0,0.5,0.2,0.4,0.5
			l-0.5,1.3c-0.1,0.3-0.4,0.5-0.8,0.5H178l-3.7,10.2c-0.1,0.3-0.4,0.5-0.7,0.5h-1.7c-0.4,0-0.5-0.2-0.4-0.5L175.2,83.1z"/>
		<path class="st0" d="M189.7,90.1c0.2-0.6,0.1-0.9-0.4-0.9h-0.7l-1.5,4.1c-0.1,0.3-0.4,0.5-0.7,0.5h-1.7c-0.4,0-0.5-0.2-0.4-0.5
			l4.3-11.9c0.1-0.3,0.4-0.5,0.7-0.5h2.9c1.2,0,2,0.3,2.4,0.8s0.5,1.3,0.1,2.2l-0.8,2.3c-0.3,0.9-0.9,1.5-1.7,1.9
			c0.6,0.3,0.7,0.9,0.3,1.9l-1.2,3.4c-0.1,0.3-0.4,0.5-0.7,0.5h-1.7c-0.4,0-0.5-0.2-0.4-0.5L189.7,90.1z M190.7,83.1l-1.4,3.8h0.6
			c0.6,0,0.9-0.3,1.2-0.9l0.8-2.1c0.2-0.6,0-0.9-0.5-0.9L190.7,83.1L190.7,83.1z"/>
		<path class="st0" d="M202.3,91.9l-0.7,1.4c-0.1,0.2-0.2,0.3-0.3,0.4s-0.3,0.1-0.6,0.1h-1.6c-0.4,0-0.5-0.2-0.2-0.6l6.6-11.9
			c0.2-0.3,0.5-0.5,0.8-0.5h2.2c0.4,0,0.5,0.2,0.5,0.5l-2,11.9c-0.1,0.4-0.3,0.6-0.7,0.6h-1.6c-0.2,0-0.4,0-0.5-0.1s-0.1-0.2,0-0.4
			l0.3-1.4H202.3z M205,89.6l1-4.5c0-0.2,0.1-0.5,0.2-0.9c-0.2,0.4-0.3,0.7-0.4,0.9l-2.3,4.5H205z"/>
		<path class="st0" d="M220.1,89.9c0.1-0.3,0.4-0.5,0.7-0.5h1.7c0.4,0,0.5,0.2,0.4,0.5l-0.3,1c-0.3,1-0.9,1.7-1.8,2.2
			c-0.8,0.6-1.9,0.8-3,0.8s-2-0.3-2.4-0.8s-0.5-1.3-0.2-2.2l2.6-7.1c0.3-1,0.9-1.7,1.8-2.3c0.9-0.5,1.9-0.8,3-0.8s2,0.3,2.4,0.8
			s0.5,1.3,0.2,2.3l-0.4,1c-0.1,0.3-0.4,0.5-0.8,0.5h-1.7c-0.4,0-0.5-0.2-0.4-0.5l0.3-1c0.1-0.3,0.1-0.5,0-0.6s-0.3-0.2-0.6-0.2
			s-0.5,0.1-0.7,0.2c-0.2,0.2-0.4,0.4-0.5,0.6l-2.6,7.1c-0.1,0.3-0.1,0.5,0,0.6c0.1,0.2,0.3,0.2,0.6,0.2s0.5-0.1,0.7-0.2
			s0.4-0.4,0.5-0.6L220.1,89.9z"/>
		<path class="st0" d="M235.3,89.9c0.1-0.3,0.4-0.5,0.7-0.5h1.7c0.4,0,0.5,0.2,0.4,0.5l-0.3,1c-0.3,1-0.9,1.7-1.8,2.2
			c-0.8,0.6-1.9,0.8-3,0.8s-2-0.3-2.4-0.8s-0.5-1.3-0.2-2.2l2.6-7.1c0.3-1,0.9-1.7,1.8-2.3c0.9-0.5,1.9-0.8,3-0.8s2,0.3,2.4,0.8
			s0.5,1.3,0.2,2.3l-0.4,1c-0.1,0.3-0.4,0.5-0.8,0.5h-1.7c-0.4,0-0.5-0.2-0.4-0.5l0.3-1c0.1-0.3,0.1-0.5,0-0.6s-0.3-0.2-0.6-0.2
			s-0.5,0.1-0.7,0.2c-0.2,0.2-0.4,0.4-0.5,0.6l-2.6,7.1c-0.1,0.3-0.1,0.5,0,0.6c0.1,0.2,0.3,0.2,0.6,0.2s0.5-0.1,0.7-0.2
			s0.4-0.4,0.5-0.6L235.3,89.9z"/>
		<path class="st0" d="M249.2,81.4c0.1-0.3,0.4-0.5,0.7-0.5h1.7c0.4,0,0.5,0.2,0.4,0.5l-4.3,11.9c-0.1,0.3-0.4,0.5-0.7,0.5h-1.7
			c-0.4,0-0.5-0.2-0.4-0.5L249.2,81.4z"/>
		<path class="st0" d="M256.7,93.2c-0.4-0.5-0.5-1.3-0.2-2.2l2.6-7.1c0.3-1,0.9-1.7,1.8-2.3c0.9-0.5,1.9-0.8,3-0.8s2,0.3,2.4,0.8
			s0.5,1.3,0.2,2.3l-2.6,7.1c-0.3,1-0.9,1.7-1.8,2.2c-0.8,0.6-1.9,0.8-3,0.8S257.2,93.7,256.7,93.2z M260.7,91.5
			c0.2-0.1,0.4-0.4,0.5-0.6l2.6-7.1c0.1-0.3,0.1-0.5,0-0.6s-0.3-0.2-0.6-0.2s-0.5,0.1-0.7,0.2c-0.2,0.2-0.4,0.4-0.5,0.6l-2.6,7.1
			c-0.1,0.3-0.1,0.5,0,0.6c0.1,0.2,0.3,0.2,0.6,0.2S260.5,91.7,260.7,91.5z M263.3,80.3c-0.4,0.1-0.6,0-0.6-0.3v-0.7
			c0-0.4,0.1-0.6,0.5-0.7l2.8-1c0.4-0.1,0.6,0,0.6,0.3v0.7c0,0.3-0.2,0.6-0.5,0.7L263.3,80.3z"/>
		<path class="st0" d="M278.8,83.8c0,0.3,0,0.5,0,0.6l1.1-3.1c0.1-0.3,0.4-0.5,0.7-0.5h1.7c0.4,0,0.5,0.2,0.4,0.5l-4.3,11.9
			c-0.1,0.3-0.4,0.5-0.8,0.5H276c-0.4,0-0.5-0.2-0.4-0.5l1.8-4.9l-0.4-2.7c-0.1-0.3-0.1-0.5,0-0.6l-3,8.2c-0.1,0.3-0.4,0.5-0.7,0.5
			h-1.7c-0.4,0-0.5-0.2-0.4-0.5l4.3-11.9c0.1-0.3,0.4-0.5,0.7-0.5h1.6c0.2,0,0.4,0,0.5,0.1s0.1,0.2,0.2,0.4L278.8,83.8z"/>
	</g>
</g>
</svg>
